<svg width="1440" height="795" viewBox="0 0 1440 795" xmlns="http://www.w3.org/2000/svg" xmlns:xlink="http://www.w3.org/1999/xlink"><defs><linearGradient x1="17.139%" y1="0%" x2="80.84%" y2="89.849%" id="b"><stop stop-color="#979AFF" offset="0%"/><stop stop-color="#571CFB" offset="100%"/></linearGradient><path id="a" d="M0 0h1440v795H0z"/><linearGradient x1="20.331%" y1="29.709%" x2="49.457%" y2="148.948%" id="c"><stop stop-color="#979AFF" offset="0%"/><stop stop-color="#693FDE" offset="49.678%"/><stop stop-color="#FD3BAF" offset="100%"/></linearGradient></defs><g fill="none" fill-rule="evenodd"><mask id="d" fill="#fff"><use xlink:href="#a"/></mask><use fill="url(#b)" xlink:href="#a"/><path d="M-1098.134 866.645h428.84c209.05 0 132.931-359.258 328.55-359.258 195.62 0 299.231-149.525 499.57-149.525 200.34 0 188.754 37.935 391.24 37.935 202.485 0 200.05-75.871 410.8-75.871s193.53 165.131 404.28 165.131c210.75 0 210.059 207.53 404.28 207.53 194.22 0 214.835-255.507 417.32-255.507 202.487 0 187.772 106.69 394.39 106.69 206.619 0 202.985 72.946 405.471 72.946S3192.968 311 3399.587 311v744h-3551.5s-1148.36-188.355-946.22-188.355z" fill="url(#c)" opacity=".306" style="mix-blend-mode:overlay" mask="url(#d)" transform="rotate(-9 1138.793 683)"/></g></svg>