<svg width="138" height="44" viewBox="0 0 138 44" xmlns="http://www.w3.org/2000/svg"><g fill="none"><path d="M133.507 43.463H5.135c-2.354 0-4.28-1.931-4.28-4.292V4.829c0-2.36 1.926-4.292 4.28-4.292h128.372c2.353 0 4.279 1.931 4.279 4.292v34.342c0 2.36-1.926 4.292-4.279 4.292z" fill-opacity=".3" fill="#000"/><path d="M20.326 31.98l-9.628-1.395V22.43h9.628v9.551zm0-10.302h-9.628v-7.727l9.628-1.395v9.122zm13.158 12.127l-12.41-1.825v-9.55h12.41v11.375zm0-12.127h-12.41v-9.122l12.41-1.824v10.946zm16.581-4.829c-.428.214-1.39.429-2.46.429-1.177 0-2.247-.322-2.996-1.073-.642-.644-1.07-1.717-1.07-3.005 0-2.361 1.605-4.185 4.28-4.185.962 0 1.604.214 2.032.322l-.214.858c-.428-.215-.963-.322-1.711-.322-1.926 0-3.21 1.18-3.21 3.22 0 2.039 1.177 3.22 3.103 3.22.641 0 1.176-.108 1.39-.215v-2.361h-1.604v-.859h2.567v3.97h-.107zm2.14-2.361c0 1.395.962 2.039 1.925 2.039.75 0 1.177-.107 1.605-.322l.214.751c-.321.215-.963.322-1.926.322-1.711 0-2.781-1.18-2.781-2.898 0-1.717.963-3.112 2.674-3.112 1.819 0 2.354 1.61 2.354 2.683v.537h-4.065zm3.102-.751c0-.644-.321-1.717-1.39-1.717-1.07 0-1.498.965-1.605 1.717h2.995zm3.53-3.971v1.61h1.498v.75h-1.498v3.113c0 .751.214 1.073.749 1.073.321 0 .428 0 .642-.107v.751c-.214.107-.535.107-.963.107-.535 0-.856-.107-1.07-.429-.32-.322-.428-.858-.428-1.502V12.02h-.855v-.752h.855V9.873l1.07-.107zm6.312 0c0 .322-.214.644-.642.644-.321 0-.642-.322-.642-.644s.321-.644.642-.644c.32 0 .642.322.642.644zm-1.177 7.405v-5.795h1.07v5.795h-1.07zm3.958-7.405v1.61h1.498v.75H67.93v3.113c0 .751.214 1.073.75 1.073.32 0 .427 0 .64-.107v.751c-.213.107-.534.107-.962.107-.535 0-.856-.107-1.07-.429-.32-.322-.428-.858-.428-1.502V12.02h-.855v-.752h.855V9.873l1.07-.107zm10.27 4.507c0 2.147-1.498 3.112-2.888 3.112-1.498 0-2.782-1.18-2.782-3.005 0-1.931 1.284-3.112 2.782-3.112 1.818 0 2.888 1.18 2.888 3.005zm-4.493 0c0 1.288.749 2.254 1.712 2.254.962 0 1.711-.966 1.711-2.254 0-.966-.535-2.253-1.711-2.253-1.177 0-1.712 1.18-1.712 2.253zm5.777-1.288v-1.61h.963l.106.966a2.201 2.201 0 0 1 1.926-1.073c.749 0 2.033.43 2.033 2.469v3.434h-1.07v-3.327c0-.966-.321-1.717-1.284-1.717-.642 0-1.177.536-1.39 1.073 0 .107-.108.322-.108.537v3.434h-1.07v-4.186h-.106zM46.32 34.556L43.434 22.86h1.604l1.39 5.902c.322 1.502.643 2.898.857 4.078a43.43 43.43 0 0 1 .963-4.078l1.497-5.902h1.605l1.39 5.902c.321 1.395.642 2.79.856 3.97.214-1.287.535-2.575.963-4.077l1.498-5.903h1.497L54.237 34.45h-1.604l-1.498-6.117c-.321-1.503-.642-2.683-.749-3.864a44.648 44.648 0 0 1-.856 3.864l-1.604 6.117H46.32v.107zm13.908-10.839c0 .537-.321.966-.963.966a.96.96 0 0 1-.963-.966.96.96 0 0 1 .963-.966c.642.108.963.43.963.966zm-1.712 10.84v-8.372h1.498v8.371h-1.498zm3.424-6.118c0-.859 0-1.61-.107-2.254h1.39l.107 1.395c.428-.75 1.39-1.61 2.782-1.61 1.176 0 2.888.645 2.888 3.542v5.044h-1.498v-4.83c0-1.394-.535-2.467-1.925-2.467-.963 0-1.819.75-2.033 1.61-.107.214-.107.429-.107.75v5.044H61.94V28.44zm16.58-6.224V32.41c0 .751 0 1.61.108 2.146h-1.39l-.108-1.502c-.428.966-1.497 1.61-2.781 1.61-2.033 0-3.53-1.718-3.53-4.293 0-2.79 1.711-4.508 3.744-4.508 1.284 0 2.14.644 2.46 1.288v-5.044h1.498v.108zm-1.497 7.297c0-.214 0-.43-.107-.644a2.188 2.188 0 0 0-2.14-1.717c-1.604 0-2.46 1.395-2.46 3.22 0 1.717.856 3.112 2.46 3.112.964 0 1.926-.644 2.247-1.824 0-.215.107-.43.107-.644v-1.503h-.107zm11.019.751c0 3.113-2.14 4.508-4.172 4.508-2.247 0-3.958-1.717-3.958-4.293 0-2.79 1.818-4.507 4.172-4.507 2.353 0 3.958 1.717 3.958 4.292zm-6.526.108c0 1.824 1.07 3.22 2.568 3.22 1.39 0 2.567-1.396 2.567-3.22 0-1.395-.749-3.22-2.46-3.22-1.926-.107-2.675 1.61-2.675 3.22zm8.451-4.293l1.07 4.293c.214.966.428 1.824.642 2.683.214-.859.428-1.717.749-2.683l1.39-4.293h1.284l1.284 4.185c.321.966.535 1.932.749 2.79.107-.858.32-1.716.642-2.682l1.176-4.186h1.498l-2.674 8.371h-1.391l-1.284-3.97a21.231 21.231 0 0 1-.749-2.79 26.945 26.945 0 0 1-.748 2.79l-1.391 3.97H90.93l-2.46-8.37h1.497v-.108zm11.661 6.868c.428.322 1.284.644 2.032.644 1.07 0 1.605-.536 1.605-1.288 0-.75-.428-1.18-1.498-1.502-1.497-.537-2.246-1.395-2.246-2.361 0-1.395 1.07-2.468 2.888-2.468.856 0 1.605.214 2.033.536l-.428 1.073c-.321-.214-.963-.536-1.712-.536-.855 0-1.39.536-1.39 1.18 0 .644.535.966 1.604 1.396 1.391.536 2.14 1.287 2.14 2.575 0 1.503-1.177 2.468-3.103 2.468-.962 0-1.711-.214-2.353-.536l.428-1.18zm12.088-8.263l-1.925 1.073-.321-1.18 2.46-1.288h1.284v11.268h-1.498zm11.982 4.078c0 3.863-1.391 5.902-3.851 5.902-2.14 0-3.638-2.039-3.745-5.795 0-3.756 1.605-5.902 3.851-5.902 2.461.107 3.745 2.254 3.745 5.795zm-6.098.215c0 2.897.856 4.614 2.247 4.614 1.497 0 2.246-1.824 2.246-4.722 0-2.79-.749-4.614-2.246-4.614-1.284 0-2.247 1.61-2.247 4.722z" fill="#FFF"/></g></svg>