<svg width="138" height="43" viewBox="0 0 138 43" xmlns="http://www.w3.org/2000/svg"><g fill="none"><path d="M132.865 43H4.493C2.14 43 .214 41.065.214 38.7V4.3C.214 1.935 2.14 0 4.493 0h128.372c2.354 0 4.28 1.935 4.28 4.3v34.4c0 2.365-1.926 4.3-4.28 4.3z" fill-opacity=".3" fill="#000"/><path d="M29.098 21.285c0-3.332 2.781-4.945 2.888-5.053-1.605-2.257-3.958-2.58-4.814-2.687-2.032-.215-4.065 1.183-5.028 1.183-1.07 0-2.674-1.183-4.386-1.183-2.246 0-4.279 1.29-5.456 3.333-2.353 4.085-.642 10.105 1.605 13.437 1.177 1.613 2.46 3.44 4.172 3.333 1.712-.108 2.354-1.075 4.386-1.075 2.033 0 2.568 1.075 4.386 1.075 1.819 0 2.996-1.613 4.065-3.225 1.284-1.828 1.819-3.655 1.819-3.763-.107-.107-3.637-1.397-3.637-5.375zm-3.317-9.89c.856-1.182 1.498-2.687 1.391-4.3-1.284.108-2.995.86-3.851 2.043-.856.967-1.605 2.58-1.39 4.084 1.39.108 2.888-.752 3.85-1.827zm27.707 22.038h-2.353l-1.284-4.085h-4.493l-1.177 4.085h-2.246l4.493-13.868h2.781l4.28 13.868zm-4.065-5.805l-1.176-3.655c-.107-.323-.321-1.29-.75-2.58-.106.537-.32 1.505-.641 2.58l-1.177 3.655h3.744zm15.512.752c0 1.72-.428 3.01-1.39 4.085-.857.86-1.82 1.29-3.103 1.29-1.284 0-2.247-.43-2.782-1.397v5.267h-2.246v-10.75c0-1.075 0-2.15-.107-3.332h1.926l.107 1.612c.748-1.183 1.818-1.828 3.316-1.828 1.177 0 2.14.43 2.888 1.398.963.86 1.39 2.042 1.39 3.655zm-2.247 0c0-.967-.214-1.828-.641-2.365-.428-.645-1.07-.968-1.926-.968-.535 0-1.07.215-1.498.538-.428.322-.749.86-.856 1.398-.107.322-.107.537-.107.645v1.72c0 .752.214 1.29.642 1.827.428.537 1.07.752 1.712.752.856 0 1.498-.322 1.926-.967.534-.645.748-1.505.748-2.58zm13.693 0c0 1.72-.428 3.01-1.39 4.085-.856.86-1.819 1.29-3.103 1.29-1.283 0-2.246-.43-2.781-1.397v5.267H66.86v-10.75c0-1.075 0-2.15-.107-3.332h1.926l.107 1.612c.749-1.183 1.819-1.828 3.316-1.828 1.177 0 2.14.43 2.889 1.398.962.86 1.39 2.042 1.39 3.655zm-2.246 0c0-.967-.214-1.828-.642-2.365-.428-.645-1.07-.968-1.926-.968-.534 0-1.07.215-1.497.538-.428.322-.75.86-.856 1.398-.107.322-.107.537-.107.645v1.72c0 .752.214 1.29.642 1.827.428.537 1.07.752 1.711.752.856 0 1.498-.322 1.926-.967.535-.645.749-1.505.749-2.58zm15.084 1.183c0 1.182-.428 2.15-1.177 2.902-.856.86-2.14 1.183-3.744 1.183-1.498 0-2.675-.323-3.53-.86l.534-1.828c.963.538 2.033.86 3.21.86.855 0 1.497-.215 1.925-.537.428-.43.642-.86.642-1.505 0-.538-.214-1.075-.535-1.398-.428-.43-1.07-.752-1.925-1.075-2.46-.86-3.638-2.257-3.638-3.977 0-1.183.428-2.043 1.284-2.795.856-.753 1.926-1.075 3.423-1.075 1.284 0 2.247.215 3.103.645l-.535 1.827c-.749-.43-1.605-.645-2.675-.645-.748 0-1.39.215-1.818.538a1.783 1.783 0 0 0-.535 1.29c0 .537.214.967.642 1.397.32.323 1.07.645 2.032 1.075a7.213 7.213 0 0 1 2.675 1.72c.32.538.642 1.29.642 2.258zm7.274-4.408h-2.46v4.837c0 1.183.427 1.828 1.283 1.828.428 0 .75 0 .963-.108l.107 1.72c-.428.216-.963.216-1.712.216-.855 0-1.604-.215-2.032-.753-.535-.537-.749-1.397-.749-2.687v-5.053h-1.498v-1.72h1.498v-1.827l2.14-.645v2.472h2.46v1.72zm11.019 3.225c0 1.505-.428 2.795-1.284 3.762-.963.968-2.14 1.505-3.637 1.505-1.498 0-2.675-.537-3.53-1.505-.856-.967-1.284-2.15-1.284-3.655 0-1.504.428-2.794 1.39-3.762.856-.968 2.14-1.505 3.638-1.505 1.497 0 2.674.538 3.53 1.505.749.967 1.177 2.15 1.177 3.655zm-2.354.108c0-.968-.214-1.72-.642-2.366a2.292 2.292 0 0 0-2.032-1.182c-.856 0-1.605.43-2.033 1.182-.428.645-.642 1.506-.642 2.366 0 .967.214 1.72.642 2.364a2.292 2.292 0 0 0 2.033 1.183c.856 0 1.497-.43 2.032-1.183.428-.645.642-1.505.642-2.365zm9.522-3.118c-.215 0-.429-.108-.75-.108a2.28 2.28 0 0 0-1.818.86 3.726 3.726 0 0 0-.535 1.936v5.267h-2.247v-6.88c0-1.182 0-2.15-.107-3.117h1.926l.107 1.935h.107c.214-.645.642-1.183 1.07-1.613.534-.322 1.07-.537 1.604-.537h.535v2.257h.107zm9.84 2.58c0 .43 0 .753-.106.968h-6.633c0 .967.321 1.72.963 2.257.535.43 1.284.752 2.14.752.963 0 1.925-.107 2.674-.43l.321 1.506c-.963.43-2.032.644-3.316.644-1.498 0-2.782-.43-3.637-1.397-.856-.86-1.284-2.15-1.284-3.655s.428-2.795 1.177-3.763c.855-1.075 2.032-1.612 3.53-1.612 1.39 0 2.567.537 3.21 1.612.748.86.962 1.935.962 3.118zm-2.032-.537c0-.646-.107-1.183-.428-1.72-.427-.646-.962-.968-1.711-.968-.749 0-1.284.322-1.712.86-.32.43-.535 1.075-.642 1.72h4.493v.108zM48.781 11.072c0 1.183-.32 2.15-1.07 2.796-.641.537-1.604.86-2.888.86-.642 0-1.176 0-1.604-.108V7.955c.534-.108 1.176-.108 1.925-.108 1.177 0 2.033.215 2.675.753.534.538.962 1.397.962 2.472zm-1.176 0c0-.752-.214-1.397-.642-1.827-.428-.43-1.07-.645-1.819-.645-.32 0-.642 0-.856.108v5.052h.75c.855 0 1.497-.215 1.925-.645.428-.43.642-1.182.642-2.042zm7.167 1.076c0 .752-.214 1.397-.642 1.827-.428.538-1.07.753-1.818.753-.75 0-1.284-.215-1.712-.753-.428-.43-.642-1.075-.642-1.827 0-.753.214-1.398.642-1.828.428-.537 1.07-.752 1.819-.752.748 0 1.283.215 1.711.752.428.43.642 1.075.642 1.828zm-1.07 0c0-.43-.107-.86-.32-1.183-.215-.43-.535-.537-.963-.537-.428 0-.75.214-.963.537-.214.322-.321.753-.321 1.183 0 .43.107.86.32 1.182.215.43.536.538.964.538.428 0 .748-.215.962-.645.214-.215.321-.645.321-1.075zm9.308-2.473l-1.498 4.945h-.963l-.642-2.15c-.214-.537-.321-1.075-.428-1.612-.107.537-.214 1.075-.428 1.612l-.642 2.15h-.962l-1.605-4.945h1.07l.535 2.365.32 1.613c.107-.43.214-.968.428-1.613l.642-2.365h.856l.642 2.258c.214.537.32 1.075.428 1.612l.32-1.612.643-2.258h1.283zm5.562 4.945h-1.07v-2.795c0-.86-.32-1.29-.962-1.29-.321 0-.535.107-.75.322-.213.216-.32.538-.32.86v2.903H64.4V9.675h.963v.753c.107-.215.32-.43.535-.645.32-.215.642-.323.962-.323.428 0 .856.108 1.177.43.428.323.535.86.535 1.613v3.117zm2.995 0h-1.07V7.418h1.07zm6.419-2.472c0 .752-.214 1.397-.642 1.827-.428.538-1.07.753-1.818.753-.75 0-1.284-.215-1.712-.753-.428-.43-.642-1.075-.642-1.827 0-.753.214-1.398.642-1.828a2.575 2.575 0 0 1 1.819-.752c.748 0 1.283.215 1.711.752.428.43.642 1.075.642 1.828zm-1.07 0c0-.43-.107-.86-.32-1.183-.215-.43-.536-.537-.963-.537-.428 0-.75.214-.963.537-.214.322-.321.753-.321 1.183 0 .43.107.86.32 1.182.215.43.536.538.964.538.427 0 .748-.215.962-.645.214-.215.321-.645.321-1.075zm6.312 2.472h-.963l-.107-.537c-.32.43-.856.644-1.39.644-.428 0-.856-.107-1.07-.43-.214-.322-.428-.645-.428-.967 0-.645.214-1.075.749-1.398.534-.322 1.176-.43 2.14-.43v-.107c0-.645-.322-.968-.964-.968-.535 0-.855.108-1.283.323l-.214-.753c.428-.322.962-.43 1.711-.43 1.284 0 1.926.645 1.926 2.043v1.827c-.107.538-.107.86-.107 1.183zm-1.07-1.72v-.752c-1.177 0-1.818.322-1.818.967 0 .215.107.43.213.538a.818.818 0 0 0 .535.215c.214 0 .428-.108.642-.215.214-.108.321-.323.428-.538V12.9zm7.275 1.72h-.963v-.752c-.321.644-.856.86-1.605.86-.642 0-1.07-.216-1.498-.646-.427-.43-.534-1.075-.534-1.827 0-.753.214-1.398.641-1.935.428-.43.963-.645 1.498-.645.642 0 1.07.215 1.39.645V7.525h1.07v7.095zm-1.07-2.042v-1.183c-.107-.215-.214-.43-.428-.645-.214-.215-.428-.215-.749-.215-.428 0-.749.215-.963.537-.214.323-.32.753-.32 1.29 0 .538.106.86.32 1.183.214.323.535.538.963.538.321 0 .642-.108.856-.43.214-.43.32-.753.32-1.075zm10.377-.43c0 .752-.214 1.397-.642 1.827-.428.538-1.07.753-1.819.753-.749 0-1.284-.215-1.712-.753-.427-.43-.641-1.075-.641-1.827 0-.753.214-1.398.641-1.828.428-.537 1.07-.752 1.819-.752.749 0 1.284.215 1.712.752.428.43.642 1.075.642 1.828zm-1.177 0c0-.43-.107-.86-.321-1.183-.214-.43-.535-.537-.963-.537-.428 0-.749.214-.963.537-.214.322-.32.753-.32 1.183 0 .43.106.86.32 1.182.214.43.535.538.963.538.428 0 .749-.215.963-.645.214-.215.32-.645.32-1.075zm7.06 2.472h-1.07v-2.795c0-.86-.32-1.29-.962-1.29-.321 0-.535.107-.75.322-.213.216-.32.538-.32.86v2.903h-1.07V9.675h.963v.753c.107-.215.32-.43.535-.645.32-.215.642-.323.963-.323.428 0 .855.108 1.176.43.428.323.535.86.535 1.613v3.117zm7.275-4.085h-1.177V12.9c0 .645.214.86.642.86h.535v.86c-.214.108-.535.108-.856.108-.428 0-.749-.108-.963-.43-.214-.215-.32-.753-.32-1.29v-2.473h-.75v-.86h.75v-.86l1.069-.322v1.182h1.177v.86h-.107zm5.776 4.085h-1.07v-2.795c0-.86-.32-1.29-.962-1.29-.535 0-.856.215-1.07.752v3.333h-1.07V7.418h1.07v3.01c.321-.538.856-.86 1.498-.86.428 0 .856.107 1.07.43.32.322.534.967.534 1.612v3.01zm5.884-2.687v.537h-3.21c0 .538.215.86.429 1.075a1.8 1.8 0 0 0 1.07.323c.534 0 .962-.108 1.283-.215l.214.752c-.428.215-.963.323-1.604.323-.75 0-1.391-.215-1.82-.645-.427-.43-.64-1.075-.64-1.828 0-.753.213-1.398.64-1.828.429-.537.964-.752 1.713-.752.748 0 1.283.215 1.604.752.214.323.321.86.321 1.505zm-.963-.323c0-.322-.107-.645-.214-.86-.214-.322-.428-.43-.855-.43-.321 0-.642.108-.856.43-.214.215-.321.537-.321.86h2.246z" fill="#FFF"/></g></svg>