<svg width="138" height="44" viewBox="0 0 138 44" xmlns="http://www.w3.org/2000/svg"><g fill="none" fill-rule="evenodd"><path d="M133.186 43.463H4.814c-2.354 0-4.28-1.931-4.28-4.292V4.829C.535 2.47 2.46.537 4.815.537h128.372c2.354 0 4.28 1.931 4.28 4.292v34.342c0 2.36-1.926 4.292-4.28 4.292z" fill-opacity=".3" fill="#000" fill-rule="nonzero"/><path d="M11.019 21.57V10.303c0-.643.534-1.18 1.07-1.18.534 0 .748.107 1.07.322L33.804 20.82c.428.214.642.536.642.858 0 .322-.214.644-.642.859L13.158 33.912c-.214.108-.535.322-1.07.322s-1.07-.536-1.07-1.18V21.57z" fill="#FBFCFF"/><path d="M24.389 21.786L11.87 9.122h.214c.535 0 .75.108 1.07.325l15.194 8.443-3.96 3.896z" fill="#D7DDF1"/><path d="M28.24 25.575l-3.851-3.897 3.959-4.005 5.457 3.03c.428.217.642.542.642.867 0 .325-.214.65-.642.866l-5.564 3.139z" fill="#C2CAE3"/><path d="M11.977 34.234L24.39 21.678l3.852 3.897-15.087 8.334c-.32.217-.535.325-1.177.325.107 0 .107 0 0 0z" fill="#9FABCF"/><path d="M76.595 36.917c-.535-.43-.962-1.18-1.176-1.61l1.711-.75c.107.214.321.536.535.858.428.429 1.07.858 1.712.858.642 0 1.39-.322 1.818-.858.321-.537.535-1.074.535-1.825v-.644c-1.283 1.61-3.958 1.395-5.456-.322-1.604-1.717-1.604-4.614 0-6.331 1.605-1.61 3.959-1.825 5.35-.322v-.751h1.818v8.048c0 2.04-.749 3.22-1.712 3.971-.642.537-1.604.751-2.46.751-.963-.107-1.926-.429-2.675-1.073zm44.824.43l1.818-4.293-3.21-7.405h1.82l2.246 5.258 2.247-5.258h1.818l-4.92 11.697h-1.82zm-8.666-4.079c-.534-.536-.748-1.288-.748-2.039 0-.644.214-1.288.642-1.717.748-.751 1.818-1.073 2.995-1.073.749 0 1.39.107 1.925.43 0-1.289-1.07-1.825-1.925-1.825-.749 0-1.498.43-1.819 1.18l-1.604-.644c.32-.75 1.176-2.146 3.316-2.146 1.07 0 2.14.322 2.781 1.073.642.752.856 1.61.856 2.79v4.508h-1.819v-.751c-.213.322-.641.536-.962.75-.428.216-.963.323-1.498.323-.642-.107-1.605-.322-2.14-.859zm-57.018-3.863c0-2.146 1.605-4.507 4.493-4.507 2.781 0 4.493 2.36 4.493 4.507 0 2.146-1.605 4.507-4.493 4.507-2.888 0-4.493-2.36-4.493-4.507zm9.628 0c0-2.146 1.604-4.507 4.493-4.507 2.781 0 4.493 2.36 4.493 4.507 0 2.146-1.605 4.507-4.493 4.507-2.782 0-4.493-2.36-4.493-4.507zm-21.716 2.36c-2.675-2.682-2.568-7.082.106-9.872 1.391-1.395 3.103-2.04 4.921-2.04 1.712 0 3.424.645 4.707 1.932l-1.283 1.395c-1.926-1.931-5.028-1.824-6.847.108a5.197 5.197 0 0 0 0 7.19c1.926 2.04 5.135 2.146 7.06.107.642-.644.856-1.502.963-2.36h-4.493v-1.932h6.312c.107.429.107.966.107 1.502 0 1.61-.642 3.22-1.712 4.293-1.176 1.18-2.888 1.824-4.6 1.824-1.925-.107-3.85-.751-5.241-2.146zm45.25.752c-1.604-1.717-1.604-4.615 0-6.439 1.605-1.717 4.28-1.717 5.777 0 .535.537.856 1.288 1.177 2.04l-5.884 2.467a2.282 2.282 0 0 0 2.14 1.395c.963 0 1.605-.321 2.246-1.287l1.605 1.073c-.214.214-.428.43-.535.644-1.818 1.824-4.92 1.824-6.525.107zm11.126 1.288V21.893h3.851c2.247 0 4.066 1.61 4.066 3.541 0 1.932-1.605 3.542-3.638 3.542h-2.353v4.722h-1.926v.107zm8.986 0V21.893h1.819v11.912h-1.819zm-24.176-.215V20.283h1.925V33.59h-1.925zm32.627-3.327c-.427-.322-1.07-.429-1.711-.429-1.284 0-2.033.644-2.033 1.395s.75 1.18 1.498 1.18c1.07 0 2.246-.858 2.246-2.146zm-54.772-.858c0-1.288-.855-2.683-2.46-2.683s-2.46 1.395-2.46 2.683c0 1.288.855 2.683 2.46 2.683 1.498 0 2.46-1.395 2.46-2.683zm9.628 0c0-1.288-.856-2.683-2.46-2.683-1.605 0-2.46 1.395-2.46 2.683 0 1.288.855 2.683 2.46 2.683 1.604 0 2.46-1.395 2.46-2.683zm9.521.751c0-.107 0-.215.107-.322v-.966c0-.107-.107-.322-.107-.429-.32-1.073-1.284-1.824-2.246-1.824-1.284 0-2.354 1.287-2.354 2.683 0 1.502 1.07 2.682 2.46 2.682.856.108 1.712-.643 2.14-1.824zm7.81-.966l3.958-1.717c-.428-.751-1.07-.966-1.605-.966-1.605.108-2.567 1.825-2.353 2.683zm16.367-3.649c0-1.073-.856-1.824-2.033-1.824h-2.14v3.756h2.247a1.92 1.92 0 0 0 1.926-1.932z" fill="#FFF"/><path d="M42.149 11.376c0-1.932 1.39-3.113 3.102-3.113 1.177 0 1.926.537 2.46 1.288l-.855.537c-.321-.43-.856-.751-1.605-.751-1.177 0-2.032.858-2.032 2.146 0 1.288.855 2.146 2.032 2.146.642 0 1.177-.322 1.39-.536v-.966h-1.71v-.966h2.888v2.254c-.535.644-1.391 1.073-2.46 1.073-1.82 0-3.21-1.288-3.21-3.112zm6.953 3.004V8.37h4.065v.967h-3.102v1.502h2.995v.966h-2.995v1.717h3.102v.966zm7.061 0V9.337h-1.819V8.37h4.707v.966h-1.818v5.043zm6.525 0V8.37h1.07v6.01h-1.07zm3.959 0V9.337h-1.82V8.37h4.708v.966h-1.819v5.043zm6.311-3.004c0-1.825 1.284-3.113 3.102-3.113 1.82 0 3.103 1.288 3.103 3.113 0 1.824-1.284 3.112-3.103 3.112-1.818 0-3.102-1.395-3.102-3.112zm5.028 0c0-1.288-.749-2.147-2.033-2.147-1.176 0-2.032.966-2.032 2.147 0 1.287.749 2.146 2.032 2.146 1.284 0 2.033-.966 2.033-2.146zm6.526 3.004l-3.103-4.292v4.292h-1.07V8.37h1.07l3.103 4.186V8.371h1.07v6.01z" fill="#FFF" fill-rule="nonzero"/></g></svg>