<svg width="864" height="697" viewBox="0 0 864 697" xmlns="http://www.w3.org/2000/svg"><defs><filter x="-11.6%" y="-13%" width="123.3%" height="136.3%" filterUnits="objectBoundingBox" id="a"><feOffset dy="30" in="SourceAlpha" result="shadowOffsetOuter1"/><feGaussianBlur stdDeviation="30" in="shadowOffsetOuter1" result="shadowBlurOuter1"/><feColorMatrix values="0 0 0 0 0.223529412 0 0 0 0 0.22745098 0 0 0 0 0.37254902 0 0 0 0.1 0" in="shadowBlurOuter1" result="shadowMatrixOuter1"/><feMerge><feMergeNode in="shadowMatrixOuter1"/><feMergeNode in="SourceGraphic"/></feMerge></filter></defs><g filter="url(#a)" transform="translate(59 29)" fill="none" fill-rule="evenodd"><rect fill="#FFF" width="902" height="579" rx="16"/><path d="M20.511 0H193v579H20.511c-7.132 0-9.718-.743-12.326-2.137a14.538 14.538 0 0 1-6.048-6.048C.743 568.207 0 565.62 0 558.489V20.51c0-7.132.743-9.718 2.137-12.326a14.538 14.538 0 0 1 6.048-6.048C10.793.743 13.38 0 20.511 0z" fill="#ECEFFA"/><g fill="#D7DDF1"><g transform="translate(20 75)"><rect width="20" height="20" rx="4"/><rect x="30" y="5" width="40" height="4" rx="2"/></g><g transform="translate(20 295)"><rect width="20" height="20" rx="4"/><rect x="30" y="5" width="60" height="4" rx="2"/></g><g transform="translate(20 325)"><rect width="20" height="20" rx="4"/><rect x="30" y="5" width="30" height="4" rx="2"/></g><g transform="translate(20 355)"><rect width="20" height="20" rx="4"/><rect x="30" y="5" width="40" height="4" rx="2"/></g><g transform="translate(40 105)"><rect width="20" height="20" rx="4"/><rect x="30" y="5" width="80" height="4" rx="2"/></g><g transform="translate(60 135)"><rect width="20" height="20" rx="4"/><rect x="30" y="5" width="20" height="4" rx="2"/></g><g transform="translate(60 165)"><rect width="20" height="20" rx="4"/><rect x="30" y="5" width="40" height="4" rx="2"/></g><g transform="translate(60 195)"><rect width="20" height="20" rx="4"/><rect x="30" y="5" width="10" height="4" rx="2"/></g><g transform="translate(60 225)"><rect width="20" height="20" rx="4"/><rect x="30" y="5" width="60" height="4" rx="2"/></g><g transform="translate(60 255)"><rect width="20" height="20" rx="4"/><rect x="30" y="5" width="50" height="4" rx="2"/></g></g><g transform="translate(220 75)"><rect fill="#ECEFFA" width="10" height="20" rx="4"/><rect fill="#D7DDF1" x="30" y="5" width="170" height="8" rx="4"/><rect fill="#9FABCF" x="60" y="65" width="110" height="8" rx="4"/><rect fill="#9FABCF" x="60" y="185" width="70" height="8" rx="4"/><rect fill="#ECEFFA" x="90" y="95" width="110" height="8" rx="4"/><rect fill="#D7DDF1" x="120" y="125" width="70" height="8" rx="4"/><rect fill="#D7DDF1" x="120" y="155" width="300" height="8" rx="4"/><rect fill="#C2CAE3" x="210" y="125" width="30" height="8" rx="4"/><rect fill="#D7DDF1" x="120" y="245" width="70" height="8" rx="4"/><rect fill="#D7DDF1" x="120" y="275" width="170" height="8" rx="4"/><rect fill="#D7DDF1" x="120" y="365" width="60" height="8" rx="4"/><rect fill="#C2CAE3" x="200" y="365" width="290" height="8" rx="4"/><rect fill="#ECEFFA" x="150" y="305" width="30" height="8" rx="4"/><rect fill="#D7DDF1" x="150" y="335" width="190" height="8" rx="4"/><rect fill="#D7DDF1" x="360" y="335" width="70" height="8" rx="4"/><rect fill="#D7DDF1" x="200" y="305" width="80" height="8" rx="4"/><rect fill="#ECEFFA" x="300" y="305" width="80" height="8" rx="4"/><rect fill="#C2CAE3" x="400" y="305" width="130" height="8" rx="4"/><rect fill="#C2CAE3" x="310" y="275" width="70" height="8" rx="4"/><rect fill="#D7DDF1" x="400" y="275" width="230" height="8" rx="4"/><rect fill="#C2CAE3" x="210" y="245" width="160" height="8" rx="4"/><rect fill="#ECEFFA" x="260" y="125" width="60" height="8" rx="4"/><rect fill="#9FABCF" x="60" y="425" width="190" height="8" rx="4"/><rect fill="#ECEFFA" x="90" y="455" width="110" height="8" rx="4"/><rect fill="#9FABCF" x="60" y="215" width="190" height="8" rx="4"/><rect fill="#9FABCF" x="60" y="395" width="30" height="8" rx="4"/><rect fill="#D7DDF1" x="270" y="215" width="40" height="8" rx="4"/><rect fill="#ECEFFA" y="30" width="10" height="20" rx="4"/><rect fill="#ECEFFA" y="60" width="10" height="20" rx="4"/><rect fill="#ECEFFA" y="90" width="10" height="20" rx="4"/><rect fill="#ECEFFA" y="120" width="10" height="20" rx="4"/><rect fill="#ECEFFA" y="150" width="10" height="20" rx="4"/><rect fill="#ECEFFA" y="180" width="10" height="20" rx="4"/><rect fill="#ECEFFA" y="210" width="10" height="20" rx="4"/><rect fill="#ECEFFA" y="240" width="10" height="20" rx="4"/><rect fill="#ECEFFA" y="270" width="10" height="20" rx="4"/><rect fill="#ECEFFA" y="300" width="10" height="20" rx="4"/><rect fill="#ECEFFA" y="330" width="10" height="20" rx="4"/><rect fill="#ECEFFA" y="360" width="10" height="20" rx="4"/><rect fill="#ECEFFA" y="390" width="10" height="20" rx="4"/><rect fill="#ECEFFA" y="420" width="10" height="20" rx="4"/><rect fill="#ECEFFA" y="450" width="10" height="20" rx="4"/><rect fill="#ECEFFA" x="30" y="35" width="80" height="8" rx="4"/><rect fill="#C2CAE3" x="130" y="35" width="210" height="8" rx="4"/><rect fill="#D7DDF1" x="360" y="35" width="60" height="8" rx="4"/></g><path d="M20.511 0H881.49c7.132 0 9.718.743 12.326 2.137a14.538 14.538 0 0 1 6.048 6.048C901.257 10.793 902 13.38 902 20.511V40H0V20.511c0-7.132.743-9.718 2.137-12.326a14.538 14.538 0 0 1 6.048-6.048C10.793.743 13.38 0 20.511 0z" fill="#D7DDF1"/><g transform="translate(20 16)"><circle fill="#9FABCF" cx="6" cy="6" r="6"/><circle fill="#AFB9D8" cx="24" cy="6" r="6"/><circle fill="#AFB9D8" opacity=".5" cx="42" cy="6" r="6"/></g></g></svg>