<?xml version="1.0" encoding="utf-8"?>
<!-- Generator: Adobe Illustrator 16.0.0, SVG Export Plug-In . SVG Version: 6.00 Build 0)  -->
<!DOCTYPE svg PUBLIC "-//W3C//DTD SVG 1.1//EN" "http://www.w3.org/Graphics/SVG/1.1/DTD/svg11.dtd">
<svg version="1.1" id="Layer_1" xmlns="http://www.w3.org/2000/svg" xmlns:xlink="http://www.w3.org/1999/xlink" x="0px" y="0px"
	 width="500px" height="500px" viewBox="0 0 500 500" enable-background="new 0 0 500 500" xml:space="preserve">
<rect x="5" y="5" fill="none" width="490" height="490"/>
<g>
	<circle fill="#DEA004" cx="250.583" cy="247.978" r="224.417"/>
	<circle fill="#F8DC4A" cx="246.054" cy="255.387" r="221.054"/>
	<g>
		
			<path fill="none" stroke="#F2C341" stroke-width="6.3613" stroke-linecap="round" stroke-linejoin="round" stroke-dasharray="6.3689,19.1067" d="
			M448.774,255.387c0,111.959-90.765,202.725-202.723,202.725c-111.959,0-202.718-90.766-202.718-202.725
			c0-111.958,90.759-202.719,202.718-202.719C358.01,52.668,448.774,143.429,448.774,255.387z"/>
	</g>
	<g opacity="0.28">
		<path fill="#FFFFFF" d="M398.725,95.529L74.985,395.389c4.68,5.714,9.637,11.189,14.856,16.403l324.101-300.19
			C409.136,105.997,404.065,100.628,398.725,95.529z"/>
		<path fill="#FFFFFF" d="M454.166,180.725c-6.217-17.316-14.514-33.635-24.621-48.642L109.087,428.896
			c14.221,11.247,29.86,20.776,46.603,28.287L454.166,180.725z"/>
		<path fill="#FFFFFF" d="M36.997,327.371c6.404,18.6,15.215,36.084,26.07,52.066L383.72,82.441
			c-15.145-12.07-31.906-22.189-49.906-29.986L36.997,327.371z"/>
	</g>
	<path fill="#C99204" d="M431.142,255.387c0,102.225-82.866,185.092-185.09,185.092c-102.218,0-185.088-82.867-185.088-185.092
		c0-102.222,82.87-185.088,185.088-185.088C348.275,70.299,431.142,153.165,431.142,255.387z"/>
	<path fill="#DEA004" d="M422.986,255.387c0,97.722-79.213,176.937-176.935,176.937c-97.716,0-176.932-79.215-176.932-176.937
		c0-97.717,79.216-176.932,176.932-176.932C343.773,78.455,422.986,157.669,422.986,255.387z"/>
	<g opacity="0.16">
		<path fill="#FFFFFF" d="M73.33,293.718c4.4,19.894,12.13,38.524,22.599,55.281l254.943-236.136
			c-15.957-11.754-33.95-20.891-53.36-26.784L73.33,293.718z"/>
		<path fill="#FFFFFF" d="M366.262,125.602L107.46,365.311c4.596,5.784,9.534,11.286,14.803,16.453L381.53,141.625
			C376.776,135.971,371.674,130.62,366.262,125.602z"/>
		<path fill="#FFFFFF" d="M418.097,214.13c-4.42-18.492-11.719-35.863-21.434-51.594L141.971,398.436
			c14.985,10.922,31.741,19.547,49.766,25.358L418.097,214.13z"/>
	</g>
	<path fill="#FFFFFF" d="M373.741,37.268c-3.497,48.033-10.584,54.659-56.381,58.358c45.797,3.701,52.884,10.326,56.381,58.36
		c3.498-48.034,10.586-54.659,56.383-58.36C384.327,91.927,377.239,85.301,373.741,37.268z"/>
	<g>
		<g>
			<g>
				<path fill="#C99204" d="M164.39,280.75c-12.714-14.927-23.073-31.31-29.734-48.575l-0.647-0.15
					c3.35,19.484,11.779,38.25,23.562,55.54l-51.635,51.635h19.137l40.612-40.605l7.808-7.808
					C170.346,287.52,167.305,284.177,164.39,280.75z"/>
				<path fill="#C99204" d="M363.672,286.038l-0.263-0.063c17.967,104.672-98.54,85.274-174.625,19.294
					c-3.412-2.963-6.749-6.018-9.982-9.161l-8.318,8.317l-34.777,34.774h19.143l24.751-24.75
					C258.877,396.445,406.158,425.037,363.672,286.038z"/>
			</g>
			<path fill="#C99204" d="M228,217.139l-39.291,39.291c-45.782-64.644-51.904-139.683,34.82-135.018l-0.094-0.255
				c-119.699-21.828-107.317,74.811-46.934,147.482c2.873,3.458,5.859,6.86,8.941,10.197l11.474-11.474l50.223-50.223H228z"/>
			<path fill="#C99204" d="M303.502,342.376c-17.915-4.613-35.399-13-51.692-23.895c-3.742-2.499-7.417-5.134-11.022-7.879
				c-1.99-1.514-3.962-3.066-5.907-4.65c-3.495-2.854-6.916-5.812-10.253-8.858c-4.826-4.407-9.474-9.006-13.921-13.748
				l66.203-66.207h-19.14l-56.073,56.074l-11.071,11.073c3.153,3.215,6.4,6.358,9.731,9.405c5.212,4.773,10.629,9.322,16.215,13.594
				c3.604,2.751,7.28,5.386,11.016,7.892c2.097,1.404,4.213,2.764,6.349,4.085c3.907,2.415,7.875,4.683,11.892,6.783
				c18.543,9.695,38.161,15.893,57.899,16.962L303.502,342.376z"/>
		</g>
		<g>
			<g>
				<path fill="#F8DC4A" d="M172.868,275.57c-12.714-14.92-23.076-31.31-29.737-48.571l-0.647-0.152
					c3.353,19.481,11.779,38.248,23.565,55.539l-51.638,51.634h19.14l40.612-40.604l7.808-7.809
					C178.82,282.341,175.779,278.997,172.868,275.57z"/>
				<path fill="#F8DC4A" d="M372.15,280.858l-0.265-0.058c17.968,104.667-98.54,85.27-174.625,19.289
					c-3.414-2.965-6.748-6.019-9.984-9.162l-8.314,8.317l-34.779,34.774h19.14l24.754-24.751
					C267.355,391.266,414.637,419.857,372.15,280.858z"/>
			</g>
			<path fill="#F8DC4A" d="M236.478,211.963l-39.291,39.288c-45.785-64.644-51.905-139.683,34.816-135.018l-0.093-0.254
				c-119.696-21.829-107.314,74.809-46.932,147.479c2.874,3.46,5.856,6.861,8.942,10.198l11.47-11.473l50.228-50.22H236.478z"/>
			<path fill="#F8DC4A" d="M311.98,337.202c-17.916-4.612-35.399-12.999-51.692-23.899c-3.742-2.5-7.418-5.128-11.022-7.88
				c-1.994-1.514-3.961-3.065-5.908-4.651c-3.498-2.847-6.918-5.804-10.252-8.857c-4.829-4.407-9.474-9-13.922-13.748l66.204-66.203
				h-19.14l-56.073,56.069l-11.071,11.074c3.153,3.215,6.4,6.358,9.731,9.406c5.212,4.773,10.626,9.321,16.215,13.593
				c3.601,2.751,7.276,5.386,11.013,7.892c2.096,1.405,4.216,2.764,6.348,4.085c3.911,2.415,7.88,4.684,11.892,6.783
				c18.542,9.702,38.165,15.894,57.903,16.963L311.98,337.202z"/>
		</g>
	</g>
	<path fill="#FFFFFF" d="M212.101,306.521c-2.191,30.033-6.617,34.176-35.249,36.489c28.632,2.312,33.058,6.455,35.249,36.481
		c2.187-30.026,6.615-34.169,35.248-36.481C218.716,340.697,214.288,336.555,212.101,306.521z"/>
</g>
</svg>
