<svg width="26" height="23" viewBox="0 0 26 23" xmlns="http://www.w3.org/2000/svg"><g transform="translate(-1 -3)" stroke="#3D4952" stroke-width="1.6" fill="none" fill-rule="evenodd" stroke-linecap="round" stroke-linejoin="round"><path d="M7.42 11.778a1.516 1.516 0 0 0 1.16-1.75C8.466 8.86 9.124 7.11 14 7.11s5.535 1.711 5.42 2.917c-.117 1.205 1.122 1.672 1.548 1.75.426.078 1.858.583 2.361.7.503.116 1.239.31 1.78-.428a4.37 4.37 0 0 0-.774-5.133C22.323 4.894 18.297 4 14 4c-4.297 0-8.323.894-10.335 2.878a4.37 4.37 0 0 0-.775 5.133c.542.7 1.278.506 1.781.428l2.748-.661z"/><path d="M23.29 25v-3.889c0-4.725-3.812-8.555-8.516-8.555h-1.548c-4.704 0-8.516 3.83-8.516 8.555V25h18.58z"/><ellipse cx="14" cy="18.778" rx="3.097" ry="3.111"/><path d="M11.677 10.222v2.49m4.646-2.49v2.49"/></g></svg>